<svg id="Camada_1" data-name="Camada 1" xmlns="http://www.w3.org/2000/svg" viewBox="0 0 415.21 169.5"><defs><style>.cls-1{fill:#cc2066;}.cls-2{fill:none;}.cls-2,.cls-3,.cls-4{stroke:#000;stroke-miterlimit:10;stroke-width:0.5px;}.cls-3{fill:#ecedef;}.cls-4{fill:#5f2a86;}</style></defs><rect class="cls-1" x="0.25" y="0.25" width="274.24" height="169" rx="20"/><rect class="cls-2" x="0.25" y="0.25" width="274.24" height="169" rx="20"/><path class="cls-3" d="M403.28,144.72c0-8.68,5.11-15.71,11.43-15.75v-8.51l-.21,0c-6.47,0-11.72-7.21-11.72-16.1S408,88.29,414.5,88.29h.21V80.46l-.21,0c-6.47,0-11.72-7.21-11.72-16.1S408,48.29,414.5,48.29h.21V40.46l-.21,0c-6.47,0-11.72-7.21-11.72-16.1S408,8.29,414.5,8.29h.21V0H169.78V169H414.71v-8.53C408.39,160.44,403.28,153.4,403.28,144.72Z" transform="translate(0.25 0.25)"/><path class="cls-4" d="M43.62,48.49l5,.36c.54,0,1.28.42,1.43-.45s-.59-.92-1.13-1.1a17,17,0,0,1-7.79-5.08,16,16,0,0,1,.51-21.55,16.16,16.16,0,0,1,21.57-1.43A15.9,15.9,0,0,1,66.64,40.5c-.59.92-1.28,1.78-1.87,2.7-.34.53-.89,1.16-.12,1.72s1.06-.15,1.47-.54A19,19,0,0,0,72.06,32a17.79,17.79,0,0,1,1.3-5.52A8,8,0,0,1,88.71,29.3c.16,4.28-1.38,8.16-3.1,12C83,47.12,78.5,51.74,74.8,56.89c-3,4.19-5,9-3.51,14.18,1.06,3.68,2.95,7.13,4.44,10.7.76,1.81,1.5,3.64,2.18,5.48,1.62,4.4,0,8.71-4,10.55a8.46,8.46,0,0,1-10.8-3.62c-1.45-2.41-2-5.14-2.9-7.77-.49-1.53-1-3.06-1.45-4.6s-1.21-2-2.38-.59c-2.56,3.1-5.58,5.77-8.29,8.72-3.24,3.53-7.45,4.3-11,1.84S32.87,85.19,34.91,81a24.86,24.86,0,0,1,6.26-7.53A51.59,51.59,0,0,0,47.92,67c.4-.5.94-1.07.54-1.75s-1.13-.53-1.79-.44c-2.46.35-4.93.66-7.38,1-4.92.76-9.3-1.95-10.27-6.4s1.71-8.8,6.48-10.21A27.31,27.31,0,0,1,43.62,48.49Z" transform="translate(0.25 0.25)"/><path class="cls-4" d="M125.19,15.8a15.92,15.92,0,0,1,15.71,13,16.21,16.21,0,0,1-10.27,18.07c-.35.13-.7.23-1,.37-.57.25-1.48.34-1.25,1.21s1.1.39,1.68.35a52,52,0,0,1,10.95,0c7,1,10.67,7.58,7.32,13.12a8.84,8.84,0,0,1-9.1,3.94c-2.38-.35-4.78-.66-7.17-1-.78-.11-1.74-.48-2.18.42s.37,1.49.88,2.09a58.41,58.41,0,0,0,6.48,6.2,24.55,24.55,0,0,1,6.24,7.54c2,4.15,1.16,8.37-2.3,10.74s-7.66,1.65-10.8-1.77c-2.77-3-5.85-5.71-8.45-8.87-1-1.26-1.81-1-2.28.49-1,3.27-2,6.56-3.14,9.8-1.21,3.51-3.34,6.16-7.21,6.92a8,8,0,0,1-9.18-10.16,88.74,88.74,0,0,1,5.69-13.74c2.61-5.24,1.78-10-.56-14.88-1.9-3.92-5.09-6.92-7.64-10.37A43.66,43.66,0,0,1,90,33.58,14.34,14.34,0,0,1,89.63,29a8,8,0,0,1,15.29-2.65c1.22,2.58,1.26,5.39,1.76,8.1a18.41,18.41,0,0,0,4.95,9.33c.52.55,1.08,1.83,2.06,1s-.11-1.55-.57-2.21a24.48,24.48,0,0,1-3-5.31A16,16,0,0,1,125.19,15.8Z" transform="translate(0.25 0.25)"/></svg>