<svg id="Camada_1" data-name="Camada 1" xmlns="http://www.w3.org/2000/svg" viewBox="0 0 414.71 169"><defs><style>.cls-1{font-size:23.93px;}.cls-1,.cls-3,.cls-4{fill:#fff;font-family:MyriadPro-Regular, Myriad Pro;}.cls-2{letter-spacing:-0.06em;}.cls-3{font-size:36.02px;}.cls-4{font-size:33.47px;}.cls-5{letter-spacing:0.02em;}.cls-6{fill:#5e2885;}.cls-7{fill:none;stroke:#000;stroke-miterlimit:10;stroke-width:0.5px;}.cls-8{fill:#f4f4f4;}</style></defs><text class="cls-1" transform="translate(310.57 135.71)"><tspan class="cls-2">V</tspan><tspan x="11.99" y="0">ÁLIDO</tspan></text><text class="cls-3" transform="translate(36.62 135.32)">68019ABC</text><text class="cls-4" transform="translate(37.43 55.19)">N<tspan class="cls-5" x="22.02" y="0">E</tspan><tspan x="39.02" y="0">TFLIX</tspan></text><path class="cls-6" d="M314.52,0c-13.75,0-25,.15-25,.32V7.07c-6.77,3.29-12.31,6.62-12.31,7.4s-.32,1.42-.7,1.42-.71.83-.71,1.84.32,1.83.71,1.83.7,1.93.7,4.28-.32,4.28-.7,4.28-.71.93-.71,2.07.32,2.07.71,2.07.7,1.9.7,4.22-.32,4.21-.7,4.21-.71.75-.71,1.67.32,1.66.71,1.66.7,1.93.7,4.28-.32,4.28-.7,4.28-.71.83-.71,1.84.32,1.83.71,1.83.7,1.93.7,4.28-.32,4.28-.7,4.28-.71.7-.71,1.56.32,1.55.71,1.55.7,1.82.7,4-.32,4-.7,4-.71,1-.71,2.2.32,2.21.71,2.21.7,1.82.7,4-.32,4-.7,4-.71.75-.71,1.67.32,1.66.71,1.66.7,1.93.7,4.28-.32,4.28-.7,4.28-.71.83-.71,1.84.32,1.83.71,1.83.7,1.93.7,4.28-.32,4.28-.7,4.28-.71.93-.71,2.07.32,2.07.71,2.07.7,1.9.7,4.22-.32,4.21-.7,4.21-.71.75-.71,1.67.32,1.66.71,1.66.7,1.93.7,4.28-.32,4.28-.7,4.28-.71.83-.71,1.84.32,1.83.71,1.83.7,1.93.7,4.28-.32,4.28-.7,4.28-.71.7-.71,1.56.32,1.55.71,1.55.7.77.7,1.7,5.54,4.39,12.31,7.67v6.8c0,.22,11.21.41,25,.41h75.2a25.07,25.07,0,0,0,25-25V25a25.07,25.07,0,0,0-25-25Zm33.29,46.67c-1.95,4.28-5.2,7.67-7.91,11.43-2.2,3.07-3.65,6.55-2.56,10.37a70.67,70.67,0,0,0,3.25,7.83c.55,1.32,1.09,2.66,1.59,4A5.9,5.9,0,0,1,339.26,88a6.19,6.19,0,0,1-7.9-2.64,26.34,26.34,0,0,1-2.12-5.69c-.36-1.12-.72-2.23-1.06-3.36s-.88-1.47-1.74-.43c-1.87,2.27-4.08,4.21-6.07,6.38-2.37,2.58-5.44,3.14-8,1.34s-3.12-4.82-1.62-7.86a17.91,17.91,0,0,1,4.58-5.51,37.82,37.82,0,0,0,4.93-4.79c.29-.37.69-.78.4-1.28s-.83-.39-1.31-.32c-1.8.25-3.61.48-5.4.76-3.6.55-6.8-1.43-7.51-4.68a6.34,6.34,0,0,1,4.74-7.47l2.09-.62c2.11.06,5,.19,6.41.3l1.07.07c.39,0,.93.31,1-.33s-.43-.68-.83-.8a12.42,12.42,0,0,1-5.69-3.72,11.68,11.68,0,0,1,.37-15.76,11.81,11.81,0,0,1,15.78-1.05,11.65,11.65,0,0,1,2.54,15.55c-.44.68-.94,1.3-1.38,2-.24.38-.65.84-.08,1.25s.77-.1,1.08-.39a13.92,13.92,0,0,0,4.34-9,13,13,0,0,1,1-4,5.83,5.83,0,0,1,11.23,2C350.2,41.05,349.07,43.89,347.81,46.67Zm45.85,15.08A6.44,6.44,0,0,1,387,64.63c-1.75-.25-3.5-.48-5.25-.72-.57-.08-1.28-.35-1.59.31s.26,1.09.63,1.53a43.26,43.26,0,0,0,4.75,4.53,17.77,17.77,0,0,1,4.56,5.52c1.48,3,.85,6.12-1.68,7.85s-5.61,1.21-7.9-1.29c-2-2.2-4.28-4.18-6.18-6.5-.76-.91-1.32-.75-1.67.36-.76,2.4-1.48,4.8-2.29,7.17-.89,2.57-2.45,4.51-5.28,5.07A5.86,5.86,0,0,1,358.4,81a64,64,0,0,1,4.16-10c1.9-3.84,1.3-7.34-.42-10.89-1.38-2.87-3.71-5.06-5.58-7.59A31.76,31.76,0,0,1,351,41.05a10.78,10.78,0,0,1-.29-3.34,5.85,5.85,0,0,1,11.19-1.94c.89,1.89.91,3.95,1.28,5.93a13.46,13.46,0,0,0,3.63,6.83c.37.4.78,1.34,1.5.76s-.08-1.14-.41-1.62a17.18,17.18,0,0,1-2.22-3.88,11.73,11.73,0,1,1,22.53-6.24,11.85,11.85,0,0,1-7.51,13.22c-.25.09-.51.17-.76.27-.42.19-1.08.25-.91.89s.8.28,1.23.26a38.2,38.2,0,0,1,8,0C393.42,52.88,396.11,57.7,393.66,61.75Z"/><path class="cls-7" d="M314.52,0c-13.75,0-25,.15-25,.32V7.07c-6.77,3.29-12.31,6.62-12.31,7.4s-.32,1.42-.7,1.42-.71.83-.71,1.84.32,1.83.71,1.83.7,1.93.7,4.28-.32,4.28-.7,4.28-.71.93-.71,2.07.32,2.07.71,2.07.7,1.9.7,4.22-.32,4.21-.7,4.21-.71.75-.71,1.67.32,1.66.71,1.66.7,1.93.7,4.28-.32,4.28-.7,4.28-.71.83-.71,1.84.32,1.83.71,1.83.7,1.93.7,4.28-.32,4.28-.7,4.28-.71.7-.71,1.56.32,1.55.71,1.55.7,1.82.7,4-.32,4-.7,4-.71,1-.71,2.2.32,2.21.71,2.21.7,1.82.7,4-.32,4-.7,4-.71.75-.71,1.67.32,1.66.71,1.66.7,1.93.7,4.28-.32,4.28-.7,4.28-.71.83-.71,1.84.32,1.83.71,1.83.7,1.93.7,4.28-.32,4.28-.7,4.28-.71.93-.71,2.07.32,2.07.71,2.07.7,1.9.7,4.22-.32,4.21-.7,4.21-.71.75-.71,1.67.32,1.66.71,1.66.7,1.93.7,4.28-.32,4.28-.7,4.28-.71.83-.71,1.84.32,1.83.71,1.83.7,1.93.7,4.28-.32,4.28-.7,4.28-.71.7-.71,1.56.32,1.55.71,1.55.7.77.7,1.7,5.54,4.39,12.31,7.67v6.8c0,.22,11.21.41,25,.41h75.2a25.07,25.07,0,0,0,25-25V25a25.07,25.07,0,0,0-25-25Zm33.29,46.67c-1.95,4.28-5.2,7.67-7.91,11.43-2.2,3.07-3.65,6.55-2.56,10.37a70.67,70.67,0,0,0,3.25,7.83c.55,1.32,1.09,2.66,1.59,4A5.9,5.9,0,0,1,339.26,88a6.19,6.19,0,0,1-7.9-2.64,26.34,26.34,0,0,1-2.12-5.69c-.36-1.12-.72-2.23-1.06-3.36s-.88-1.47-1.74-.43c-1.87,2.27-4.08,4.21-6.07,6.38-2.37,2.58-5.44,3.14-8,1.34s-3.12-4.82-1.62-7.86a17.91,17.91,0,0,1,4.58-5.51,37.82,37.82,0,0,0,4.93-4.79c.29-.37.69-.78.4-1.28s-.83-.39-1.31-.32c-1.8.25-3.61.48-5.4.76-3.6.55-6.8-1.43-7.51-4.68a6.34,6.34,0,0,1,4.74-7.47l2.09-.62c2.11.06,5,.19,6.41.3l1.07.07c.39,0,.93.31,1-.33s-.43-.68-.83-.8a12.42,12.42,0,0,1-5.69-3.72,11.68,11.68,0,0,1,.37-15.76,11.81,11.81,0,0,1,15.78-1.05,11.65,11.65,0,0,1,2.54,15.55c-.44.68-.94,1.3-1.38,2-.24.38-.65.84-.08,1.25s.77-.1,1.08-.39a13.92,13.92,0,0,0,4.34-9,13,13,0,0,1,1-4,5.83,5.83,0,0,1,11.23,2C350.2,41.05,349.07,43.89,347.81,46.67Zm45.85,15.08A6.44,6.44,0,0,1,387,64.63c-1.75-.25-3.5-.48-5.25-.72-.57-.08-1.28-.35-1.59.31s.26,1.09.63,1.53a43.26,43.26,0,0,0,4.75,4.53,17.77,17.77,0,0,1,4.56,5.52c1.48,3,.85,6.12-1.68,7.85s-5.61,1.21-7.9-1.29c-2-2.2-4.28-4.18-6.18-6.5-.76-.91-1.32-.75-1.67.36-.76,2.4-1.48,4.8-2.29,7.17-.89,2.57-2.45,4.51-5.28,5.07A5.86,5.86,0,0,1,358.4,81a64,64,0,0,1,4.16-10c1.9-3.84,1.3-7.34-.42-10.89-1.38-2.87-3.71-5.06-5.58-7.59A31.76,31.76,0,0,1,351,41.05a10.78,10.78,0,0,1-.29-3.34,5.85,5.85,0,0,1,11.19-1.94c.89,1.89.91,3.95,1.28,5.93a13.46,13.46,0,0,0,3.63,6.83c.37.4.78,1.34,1.5.76s-.08-1.14-.41-1.62a17.18,17.18,0,0,1-2.22-3.88,11.73,11.73,0,1,1,22.53-6.24,11.85,11.85,0,0,1-7.51,13.22c-.25.09-.51.17-.76.27-.42.19-1.08.25-.91.89s.8.28,1.23.26a38.2,38.2,0,0,1,8,0C393.42,52.88,396.11,57.7,393.66,61.75Z"/><path class="cls-6" d="M276,150.87c0-.86-.32-1.56-.71-1.56s-.7-1.92-.7-4.28.32-4.28.7-4.28.71-.82.71-1.83-.32-1.84-.71-1.84-.7-1.92-.7-4.28.32-4.28.7-4.28.71-.75.71-1.66-.32-1.67-.71-1.67-.7-1.89-.7-4.21.32-4.22.7-4.22.71-.93.71-2.07-.32-2.07-.71-2.07-.7-1.92-.7-4.28.32-4.28.7-4.28.71-.83.71-1.83-.32-1.84-.71-1.84-.7-1.92-.7-4.28.32-4.28.7-4.28.71-.75.71-1.66-.32-1.67-.71-1.67-.7-1.82-.7-4,.32-4,.7-4,.71-1,.71-2.21-.32-2.2-.71-2.2-.7-1.82-.7-4,.32-4,.7-4,.71-.7.71-1.55-.32-1.56-.71-1.56-.7-1.92-.7-4.28.32-4.28.7-4.28.71-.82.71-1.83-.32-1.84-.71-1.84-.7-1.92-.7-4.28.32-4.28.7-4.28.71-.75.71-1.66-.32-1.67-.71-1.67-.7-1.89-.7-4.21.32-4.22.7-4.22.71-.93.71-2.07-.32-2.07-.71-2.07-.7-1.92-.7-4.28.32-4.28.7-4.28.71-.83.71-1.83-.32-1.84-.71-1.84-.7-.65-.7-1.44S269.26,10.28,262.7,7V.32c0-.17-11.22-.32-25-.32H25.2A25.07,25.07,0,0,0,.2,25V144a25.07,25.07,0,0,0,25,25H237.73c13.75,0,25-.19,25-.41v-6.68c6.56-3.33,11.93-6.83,11.93-7.77s.32-1.72.7-1.72S276,151.72,276,150.87Z"/><path class="cls-7" d="M276,150.87c0-.86-.32-1.56-.71-1.56s-.7-1.92-.7-4.28.32-4.28.7-4.28.71-.82.71-1.83-.32-1.84-.71-1.84-.7-1.92-.7-4.28.32-4.28.7-4.28.71-.75.71-1.66-.32-1.67-.71-1.67-.7-1.89-.7-4.21.32-4.22.7-4.22.71-.93.71-2.07-.32-2.07-.71-2.07-.7-1.92-.7-4.28.32-4.28.7-4.28.71-.83.71-1.83-.32-1.84-.71-1.84-.7-1.92-.7-4.28.32-4.28.7-4.28.71-.75.71-1.66-.32-1.67-.71-1.67-.7-1.82-.7-4,.32-4,.7-4,.71-1,.71-2.21-.32-2.2-.71-2.2-.7-1.82-.7-4,.32-4,.7-4,.71-.7.71-1.55-.32-1.56-.71-1.56-.7-1.92-.7-4.28.32-4.28.7-4.28.71-.82.71-1.83-.32-1.84-.71-1.84-.7-1.92-.7-4.28.32-4.28.7-4.28.71-.75.71-1.66-.32-1.67-.71-1.67-.7-1.89-.7-4.21.32-4.22.7-4.22.71-.93.71-2.07-.32-2.07-.71-2.07-.7-1.92-.7-4.28.32-4.28.7-4.28.71-.83.71-1.83-.32-1.84-.71-1.84-.7-.65-.7-1.44S269.26,10.28,262.7,7V.32c0-.17-11.22-.32-25-.32H25.2A25.07,25.07,0,0,0,.2,25V144a25.07,25.07,0,0,0,25,25H237.73c13.75,0,25-.19,25-.41v-6.68c6.56-3.33,11.93-6.83,11.93-7.77s.32-1.72.7-1.72S276,151.72,276,150.87Z"/><path class="cls-8" d="M267.38,144.69c0-.8-.29-1.44-.66-1.44s-.65-1.79-.65-4,.29-4,.65-4,.66-.77.66-1.7-.29-1.7-.66-1.7-.65-1.78-.65-4,.29-4,.65-4,.66-.69.66-1.54-.29-1.54-.66-1.54-.65-1.75-.65-3.9.29-3.91.65-3.91.66-.86.66-1.91-.29-1.91-.66-1.91-.65-1.79-.65-4,.29-4,.65-4,.66-.77.66-1.7-.29-1.7-.66-1.7-.65-1.78-.65-4,.29-4,.65-4,.66-.69.66-1.54-.29-1.54-.66-1.54-.65-1.68-.65-3.74.29-3.74.65-3.74.66-.92.66-2-.29-2-.66-2-.65-1.68-.65-3.74.29-3.74.65-3.74.66-.65.66-1.44-.29-1.44-.66-1.44-.65-1.78-.65-4,.29-4,.65-4,.66-.76.66-1.7-.29-1.69-.66-1.69-.65-1.79-.65-4,.29-4,.65-4,.66-.7.66-1.54-.29-1.54-.66-1.54-.65-1.76-.65-3.91.29-3.9.65-3.9.66-.87.66-1.92-.29-1.91-.66-1.91-.65-1.79-.65-4,.29-4,.65-4,.66-.76.66-1.7-.29-1.7-.66-1.7-.65-.6-.65-1.33-5-3.86-11.19-6.94V5.3c0-.17-11.22-.3-25-.3h-196a25.07,25.07,0,0,0-25,25V136.47a25.07,25.07,0,0,0,25,25H229.91c13.75,0,25-.17,25-.38v-6.18c6.15-3.08,11.19-6.32,11.19-7.2s.29-1.58.65-1.58S267.38,145.48,267.38,144.69Z"/><path class="cls-7" d="M267.38,144.69c0-.8-.29-1.44-.66-1.44s-.65-1.79-.65-4,.29-4,.65-4,.66-.77.66-1.7-.29-1.7-.66-1.7-.65-1.78-.65-4,.29-4,.65-4,.66-.69.66-1.54-.29-1.54-.66-1.54-.65-1.75-.65-3.9.29-3.91.65-3.91.66-.86.66-1.91-.29-1.91-.66-1.91-.65-1.79-.65-4,.29-4,.65-4,.66-.77.66-1.7-.29-1.7-.66-1.7-.65-1.78-.65-4,.29-4,.65-4,.66-.69.66-1.54-.29-1.54-.66-1.54-.65-1.68-.65-3.74.29-3.74.65-3.74.66-.92.66-2-.29-2-.66-2-.65-1.68-.65-3.74.29-3.74.65-3.74.66-.65.66-1.44-.29-1.44-.66-1.44-.65-1.78-.65-4,.29-4,.65-4,.66-.76.66-1.7-.29-1.69-.66-1.69-.65-1.79-.65-4,.29-4,.65-4,.66-.7.66-1.54-.29-1.54-.66-1.54-.65-1.76-.65-3.91.29-3.9.65-3.9.66-.87.66-1.92-.29-1.91-.66-1.91-.65-1.79-.65-4,.29-4,.65-4,.66-.76.66-1.7-.29-1.7-.66-1.7-.65-.6-.65-1.33-5-3.86-11.19-6.94V5.3c0-.17-11.22-.3-25-.3h-196a25.07,25.07,0,0,0-25,25V136.47a25.07,25.07,0,0,0,25,25H229.91c13.75,0,25-.17,25-.38v-6.18c6.15-3.08,11.19-6.32,11.19-7.2s.29-1.58.65-1.58S267.38,145.48,267.38,144.69Z"/></svg>